<?xml version="1.0" encoding="UTF-8"?>
<svg id="Layer_1" xmlns="http://www.w3.org/2000/svg" version="1.1" viewBox="0 0 323.42 157.35">
  <!-- Generator: Adobe Illustrator 29.8.2, SVG Export Plug-In . SVG Version: 2.1.1 Build 3)  -->
  <defs>
    <style>
      .st0 {
        fill: #01c4d9;
      }

      .st1 {
        fill: #febe29;
      }

      .st2 {
        fill: #feba27;
      }

      .st3 {
        fill: #1960d4;
      }
    </style>
  </defs>
  <g>
    <g>
      <path class="st3" d="M29.38,110.16l11.85,3.5c10.51,3.23,19.4,7.81,19.4,20.34,0,15.49-15.63,22.63-31.65,22.5-9.03-.14-19.53-2.16-27.89-6.19l.14-16.43c5.53,4.18,14.28,7.81,24.78,8.49,8.76.41,16.97-1.48,16.97-7.01.14-4.31-2.69-6.46-8.62-8.08l-13.74-3.91c-10.64-3.1-19.66-7.81-19.66-19.93,0-15.08,15.49-21.68,31.79-21.68,8.49,0,17.24,1.62,23.84,4.98v15.9c-6.19-4.44-16.7-6.6-22.5-6.73-9.42-.27-15.36,2.02-15.36,6.87.14,3.5,4.31,5.52,10.64,7.41h0Z"/>
      <path class="st3" d="M116.11,107.19c0-7.67-6.33-10.78-15.63-10.78s-19.93,3.23-26.13,9.56v-15.9c7.81-5.92,18.32-8.35,28.01-8.35,16.57,0,30.03,7.41,30.03,25.32v47.95h-16.03v-12.79c-4.98,9.16-14.01,13.88-22.77,14.28-12.53.54-24.78-6.73-24.78-22.23,0-16.84,14.95-22.77,32.6-22.77h14.68v-4.31.02ZM116.11,123.36h-16.29c-9.97,0-13.2,4.98-13.06,10.24.14,5.39,5.12,8.62,12.26,8.49,8.08-.14,17.11-4.71,17.11-13.74v-4.98h0Z"/>
      <path class="st3" d="M147.1,155.01V61.26h17.51v32.87c6.6-11.45,16.03-12.4,19.4-12.4,24.64,0,27.75,18.86,27.75,33.27v40h-17.51v-39.33c0-11.18-3.64-17.91-13.33-17.91-11.45,0-16.29,11.31-16.29,20.07v37.18h-17.52Z"/>
      <path class="st3" d="M258.49,142.34c7.94.68,15.76-2.69,18.05-11.99h16.43c-2.83,18.18-18.18,26.8-33.94,26.53-18.86-.27-36.5-13.33-36.5-37.85,0-18.59,11.58-37.31,35.56-37.31s35.15,17.11,35.69,40.41h-53.88c.41,11.85,8.76,19.26,18.59,20.2h0ZM275.59,110.96c-1.89-8.76-7.81-14.81-17.51-14.81-8.89,0-15.76,6.19-17.24,14.81h34.75,0Z"/>
      <path class="st3" d="M304.96,155.15V59.91h17.51v95.23h-17.51Z"/>
    </g>
    <g>
      <path class="st3" d="M20.62,55.43v-18.5L.96,1.25h12.28l12.74,24.33L38.73,1.25h11.89l-19.66,35.91v18.27h-10.34Z"/>
      <path class="st3" d="M74.18,27.76c0-4.43-3.66-6.22-9.02-6.22s-11.5,1.87-15.08,5.52v-9.18c4.51-3.42,10.57-4.82,16.16-4.82,9.56,0,17.34,4.27,17.34,14.61v27.68h-9.25v-7.39c-2.87,5.29-8.08,8-13.13,8.24-7.23.31-14.31-3.89-14.31-12.82,0-9.71,8.63-13.13,18.81-13.13h8.47v-2.49ZM74.18,37.09h-9.4c-5.76,0-7.61,2.87-7.54,5.91.08,3.11,2.95,4.97,7.08,4.9,4.66-.08,9.87-2.72,9.87-7.93v-2.87h0Z"/>
      <path class="st3" d="M92.06,55.43V.47h10.1v54.95h-10.1Z"/>
      <path class="st3" d="M110.79,55.43V.47h10.1v54.95h-10.1Z"/>
      <path class="st3" d="M155.17,27.76c0-4.43-3.66-6.22-9.02-6.22s-11.5,1.87-15.08,5.52v-9.18c4.51-3.42,10.57-4.82,16.16-4.82,9.56,0,17.34,4.27,17.34,14.61v27.68h-9.25v-7.39c-2.87,5.29-8.08,8-13.13,8.24-7.23.31-14.31-3.89-14.31-12.82,0-9.71,8.63-13.13,18.81-13.13h8.47v-2.49h0ZM155.17,37.09h-9.4c-5.76,0-7.61,2.87-7.54,5.91.08,3.11,2.95,4.97,7.08,4.9,4.66-.08,9.87-2.72,9.87-7.93v-2.87h0Z"/>
    </g>
  </g>
  <g>
    <path class="st2" d="M217.96,53.16c-.02-31.53,43.99-40.9,57.44-12.85,6.33,13.2,4.87,15.51-9.89,14.57-15.62-.99-30.77-11.79-47.55-1.73Z"/>
    <path class="st0" d="M211.33,75.13c-4.38,1.2-7.63-4.02-4.8-7.58,5.23-6.59,14.57-11.3,22.22-12.63,18.48-3.21,31.14,7.78,49.16,4.96,5.24-.82,9.12-2.88,12.78-6.09,1.57-1.38,3.86-1.59,5.63-.48h0c2.33,1.45,2.95,4.59,1.32,6.8-4.93,6.68-11.57,11.58-20.23,13.05-20.69,3.53-35.15-11.89-56.1-3.79-4.95,1.91-7.05,4.95-9.99,5.75Z"/>
    <path class="st1" d="M243.82,16.04c-1.4-3.19-3.71-16.15,1.74-15.57,4.14.45,6.57,18.38-1.74,15.57Z"/>
    <path class="st1" d="M208.73,47.41h0c.09,1.56-1.07,2.91-2.63,3.06-2.89.28-6.73.76-9.2-.03-1.58-.5-2.42-2.21-1.86-3.77l.15-.41c.43-1.2,1.59-1.98,2.86-1.93l7.89.31c1.5.06,2.71,1.25,2.79,2.75Z"/>
    <path class="st1" d="M300.82,42.42h0c.01.67-.24,1.33-.69,1.82l-.18.2c-.45.49-1.08.79-1.74.83l-8.93.61c-1.45.1-2.71-1.01-2.79-2.46l-.02-.31c-.08-1.44,1.03-2.68,2.47-2.75l9.13-.5c1.48-.08,2.73,1.08,2.75,2.56Z"/>
    <path class="st1" d="M281.68,12.52h0c1.03.92,1.19,2.47.37,3.59-2.14,2.92-4.49,7.62-7.06,7.06-5.74-1.24-.4-7.23,3.01-10.57,1.01-.99,2.62-1.03,3.67-.08Z"/>
    <path class="st1" d="M209.68,16.52c.86-1.25,2.58-1.59,3.83-.74,3.97,2.71,9.13,9.4,4.63,10.64-1.41.39-5.59-3.8-8.14-6.35-.95-.95-1.09-2.45-.32-3.55h0Z"/>
  </g>
</svg>